<svg xmlns="http://www.w3.org/2000/svg" viewBox="0 0 286.88 70.27"><defs><style>.cls-1{fill:#a32116;stroke:#ec634c;stroke-miterlimit:10;stroke-width:13px;}.cls-2{fill:#fff;}</style></defs><g id="Ebene_2" data-name="Ebene 2"><g id="Ebene_1-2" data-name="Ebene 1"><path class="cls-1" d="M6.5,51.33a3,3,0,0,1,1-2.38A3.63,3.63,0,0,1,10,48,3.62,3.62,0,0,1,13,50a13.1,13.1,0,0,0,3.16,3.57c2,1.3,4.82,2,8.56,2a21.91,21.91,0,0,0,10-2.33c3.92-2,5.89-4.75,5.89-8.28q0-4.37-5-6.9a23.71,23.71,0,0,0-10.36-2.36,20.19,20.19,0,0,1-9.33-2.39q-4.92-2.8-4.92-8Q11,19,18,13.92A23.4,23.4,0,0,1,31.84,9.1a29.51,29.51,0,0,1,7.6,1.14q5.61,1.5,5.61,3.82,0,3-3.12,3a27.16,27.16,0,0,1-4.85-.75,25.94,25.94,0,0,0-5.38-.71,16.24,16.24,0,0,0-9.18,2.67Q18.63,21,18.63,24.8c0,1.92,1.71,3.28,5.14,4.06a55,55,0,0,0,7.38.83q7.93.6,12.41,5a13.22,13.22,0,0,1,4.09,9.81q0,8.25-7.62,13.17a27.79,27.79,0,0,1-15.36,4.26,27.44,27.44,0,0,1-11.62-2.42Q6.6,56.53,6.5,51.33Z"/><path class="cls-1" d="M78.47,61.34q-10.78,0-16.08-6.2-4.3-5-5.41-14.77-.52-4.4-.52-17.58,0-4.84.21-7.83a19.39,19.39,0,0,1,.62-4.4C57.87,8.87,58.91,8,60.41,8q3.2,0,3.19,5.85V34.23q0,21,14.7,21,13.83,0,13.83-35.36v-3.4c0-1.38,0-2.31,0-2.77a8.83,8.83,0,0,1,.76-3.78,3.11,3.11,0,0,1,2.88-2.08c2.31,0,3.46,1.59,3.46,4.75,0,1,0,2.38,0,4.3v4.3Q99.24,61.34,78.47,61.34Z"/><path class="cls-1" d="M138.93,58.54q-3.92,1.83-12.3,3.29A76.57,76.57,0,0,1,114,63.18c-2.34,0-4-.36-5-1.07q-2.08-1.45-2.08-5.34l.69-11.48q.9-15.87.9-35.22a3.53,3.53,0,0,1,1-2.53,3.43,3.43,0,0,1,4.92,0,3.53,3.53,0,0,1,1,2.53q0,19.59-.93,35.64L114,51a39,39,0,0,0-.21,5.1q9,.09,22.88-4.27a4.11,4.11,0,0,1,1.11-.17,3.13,3.13,0,0,1,2.49,1.18,3.78,3.78,0,0,1,.87,2.46A3.43,3.43,0,0,1,138.93,58.54Z"/><path class="cls-1" d="M182.48,61.38q-5.28,0-15-9.26L157.1,41.69v.48l0,18.17q0,3.44-3,3.43A3.66,3.66,0,0,1,150.89,62a5.43,5.43,0,0,1-1-3.09q0-8.12.49-24.26t.48-24.24a3.53,3.53,0,0,1,1-2.53,3.43,3.43,0,0,1,4.92,0,3.53,3.53,0,0,1,1,2.53q0,3.36-.41,10.47Q157,27.79,157,31.43,161.64,27,167.5,20.37l9.95-11.55A3.48,3.48,0,0,1,183.62,11q0,2.3-8.94,12.2Q168.5,30,161.92,36.49q4.16,4.36,13,12.55l3.64,3.05a14.36,14.36,0,0,0,4.27,2.29,3.44,3.44,0,0,1,2.74,3.43,4,4,0,0,1-.73,2.25A2.77,2.77,0,0,1,182.48,61.38Z"/><path class="cls-1" d="M229.21,61q-3.19,0-5.55-8.18-.9-3.12-2.25-10.92c-2.36.32-5.44.9-9.26,1.73l-9.22,1.91q-1.74,4.53-5.93,13.27a3.36,3.36,0,0,1-3,1.95,3.55,3.55,0,0,1-2.48-1,3.25,3.25,0,0,1-1.1-2.5q0-1.66,5.24-12.65a3.73,3.73,0,0,1-.59-2.08q0-2.81,3.4-3.61,3.94-7.41,10-17,8.22-13.14,10.23-13.14,2.73,0,3.74,3.81l2.19,11.65,5.16,24.09,2,5.48a14.31,14.31,0,0,1,1,3.75A3.26,3.26,0,0,1,231.67,60,3.52,3.52,0,0,1,229.21,61ZM217,21.37l-9.91,16q4.19-1.07,12.72-2.6Z"/><path class="cls-1" d="M276.84,60.34a3.48,3.48,0,0,1-2.46-1.11A58.34,58.34,0,0,0,248.86,44l.28,6.79.18,6.83a3.52,3.52,0,0,1-1,2.55,3.52,3.52,0,0,1-5,0,3.52,3.52,0,0,1-1-2.55c0-1.83-.08-4.55-.26-8.16s-.26-6.34-.26-8.17a93.37,93.37,0,0,1,.7-9.5c.46-4.2.69-7.36.69-9.46,0-1.18-.11-2.92-.33-5.24s-.33-4.05-.33-5.23a5.66,5.66,0,0,1,1.11-3.47,3.84,3.84,0,0,1,3.64-1.66l8.35.66a22.87,22.87,0,0,1,8,2.32q14,7.46,14,18.2,0,5.27-4.78,9.33a26.12,26.12,0,0,1-9.6,5Q274.13,48,279.48,54.38a3.67,3.67,0,0,1,.9,2.35,3.46,3.46,0,0,1-1.06,2.53A3.35,3.35,0,0,1,276.84,60.34ZM254.76,14.51l-5.13-.42.34,4.2c.17,1.71.25,3.11.25,4.19a65.58,65.58,0,0,1-.45,6.9l-.73,6.9,1.51,0c.68,0,1.19,0,1.54,0q8.84,0,13.24-2.36a14.87,14.87,0,0,0,3.61-2.81c1.22-1.29,1.84-2.39,1.84-3.29q0-4.82-5.48-9A21,21,0,0,0,254.76,14.51Z"/><path class="cls-2" d="M6.92,51.05a2.92,2.92,0,0,1,1-2.38,3.61,3.61,0,0,1,2.51-.92,3.62,3.62,0,0,1,3,2,13.59,13.59,0,0,0,3.15,3.57c2,1.29,4.82,1.94,8.57,1.94a22,22,0,0,0,10-2.32q5.9-3,5.9-8.29c0-2.91-1.66-5.21-5-6.9a23.9,23.9,0,0,0-10.37-2.36A20,20,0,0,1,16.35,33q-4.94-2.81-4.93-8,0-6.18,7-11.27A23.4,23.4,0,0,1,32.26,8.82,29.12,29.12,0,0,1,39.85,10q5.63,1.49,5.62,3.81,0,3-3.12,3a27.9,27.9,0,0,1-4.86-.74,24.63,24.63,0,0,0-5.37-.71A16.19,16.19,0,0,0,22.93,18c-2.59,1.78-3.88,3.95-3.88,6.49q0,2.88,5.13,4a56.21,56.21,0,0,0,7.39.84q7.93.58,12.41,5a13.26,13.26,0,0,1,4.09,9.81q0,8.25-7.63,13.17a27.67,27.67,0,0,1-15.36,4.27,27.37,27.37,0,0,1-11.61-2.43Q7,56.25,6.92,51.05Z"/><path class="cls-2" d="M78.89,61.07q-10.78,0-16.09-6.21-4.29-5-5.41-14.77-.51-4.4-.52-17.57,0-4.86.21-7.84a19.84,19.84,0,0,1,.63-4.4,3.17,3.17,0,0,1,3.12-2.53C63,7.75,64,9.7,64,13.61V34q0,21,14.69,21Q92.56,55,92.55,19.6V16.21c0-1.39,0-2.31,0-2.78a8.83,8.83,0,0,1,.77-3.78,3.09,3.09,0,0,1,2.87-2.08c2.31,0,3.47,1.59,3.47,4.75,0,.95,0,2.39,0,4.3v4.3Q99.65,61.08,78.89,61.07Z"/><path class="cls-2" d="M139.35,58.26q-3.91,1.83-12.31,3.29a76.47,76.47,0,0,1-12.62,1.35c-2.33,0-4-.35-5-1.07q-2.09-1.45-2.08-5.34L108,45q.9-15.89.9-35.23a3.55,3.55,0,0,1,1-2.53,3.24,3.24,0,0,1,2.44-1,3.28,3.28,0,0,1,2.48,1,3.55,3.55,0,0,1,1,2.53q0,19.59-.94,35.64l-.45,5.27a42.91,42.91,0,0,0-.21,5.1q9.06.11,22.89-4.27a4.1,4.1,0,0,1,1.1-.17,3.14,3.14,0,0,1,2.5,1.18,3.81,3.81,0,0,1,.87,2.46A3.42,3.42,0,0,1,139.35,58.26Z"/><path class="cls-2" d="M182.89,61.1q-5.26,0-15-9.25L157.51,41.41v.49l0,18.16q0,3.44-3,3.43a3.62,3.62,0,0,1-3.15-1.73,5.35,5.35,0,0,1-1-3.08q0-8.11.48-24.27t.49-24.24a3.55,3.55,0,0,1,1-2.53,3.24,3.24,0,0,1,2.44-1,3.28,3.28,0,0,1,2.48,1,3.55,3.55,0,0,1,1,2.53q0,3.38-.42,10.47c-.28,4.58-.4,8.08-.38,10.51q4.65-4.41,10.51-11.06l9.94-11.54a3.33,3.33,0,0,1,5.1-.32A3.4,3.4,0,0,1,184,10.76q0,2.3-8.95,12.21-6.17,6.75-12.76,13.24,4.17,4.36,13,12.55L179,51.81a14.44,14.44,0,0,0,4.26,2.29A3.43,3.43,0,0,1,186,57.53a3.89,3.89,0,0,1-.73,2.25A2.76,2.76,0,0,1,182.89,61.1Z"/><path class="cls-2" d="M229.62,60.72q-3.18,0-5.54-8.18-.9-3.12-2.26-10.92c-2.35.32-5.44.9-9.25,1.73l-9.22,1.91q-1.74,4.55-5.93,13.28a3.38,3.38,0,0,1-3,1.94,3.58,3.58,0,0,1-2.48-1A3.24,3.24,0,0,1,190.83,57q0-1.66,5.24-12.66a3.65,3.65,0,0,1-.59-2.08q0-2.81,3.39-3.6,4-7.43,10-17.06,8.22-13.14,10.23-13.14,2.73,0,3.74,3.81L225,23.9,230.18,48l2,5.48a14.54,14.54,0,0,1,1,3.74,3.31,3.31,0,0,1-1.07,2.5A3.51,3.51,0,0,1,229.62,60.72ZM217.39,21.1l-9.92,16q4.2-1.08,12.72-2.6Z"/><path class="cls-2" d="M277.26,60.06A3.48,3.48,0,0,1,274.8,59,58.49,58.49,0,0,0,249.28,43.7l.28,6.79.17,6.83a3.52,3.52,0,0,1-1,2.55,3.51,3.51,0,0,1-5,0,3.52,3.52,0,0,1-1-2.55q0-2.73-.26-8.16c-.18-3.62-.26-6.34-.26-8.17,0-2.12.23-5.29.69-9.49s.69-7.37.69-9.47c0-1.18-.11-2.92-.32-5.23s-.33-4.06-.33-5.24a5.66,5.66,0,0,1,1.11-3.47,3.85,3.85,0,0,1,3.64-1.66l8.35.66a23.08,23.08,0,0,1,8,2.32q14,7.46,14,18.2c0,3.52-1.6,6.62-4.78,9.33a26.26,26.26,0,0,1-9.61,5q10.78,5.79,16.12,12.2a3.67,3.67,0,0,1,.9,2.36A3.51,3.51,0,0,1,279.74,59,3.39,3.39,0,0,1,277.26,60.06ZM255.17,14.23,250,13.81l.35,4.2c.16,1.71.24,3.11.24,4.19a65.58,65.58,0,0,1-.45,6.9l-.73,6.9c.33,0,.83,0,1.51,0l1.55,0q8.83,0,13.24-2.36a15.22,15.22,0,0,0,3.6-2.8c1.23-1.3,1.84-2.4,1.84-3.3q0-4.82-5.48-9A21,21,0,0,0,255.17,14.23Z"/></g></g></svg>